<?xml version="1.0" encoding="utf-8"?>
<!-- Generator: Adobe Illustrator 24.0.1, SVG Export Plug-In . SVG Version: 6.00 Build 0)  -->
<svg version="1.1" id="Capa_1" xmlns="http://www.w3.org/2000/svg" xmlns:xlink="http://www.w3.org/1999/xlink" x="0px" y="0px"
	 viewBox="0 0 841.9 595.3" style="enable-background:new 0 0 841.9 595.3;" xml:space="preserve">
<style type="text/css">
	.st0{fill:#61DAFB;}
</style>
<g>
	<path class="st0" d="M742.1,296.5L742.1,296.5c0-42.5-53.3-82.9-135-107.9c18.9-83.3,10.5-149.5-26.4-170.7
		c-8.5-5-18.4-7.3-29.2-7.3v-0.1c-36,0-83.1,25.7-130.8,70.2C373.1,36.4,326,11,290,11v0.1c-11,0-20.9,2.4-29.6,7.3
		c-36.8,21.2-45,87.3-26.1,170.3c-81.4,25.1-134.4,65.3-134.4,107.7c0,42.5,53.3,82.9,135,107.9c-18.9,83.3-10.5,149.5,26.4,170.7
		c8.5,5,18.5,7.3,29.5,7.3c36,0,83.1-25.7,130.8-70.2c47.7,44.2,94.8,69.6,130.8,69.6c11,0,20.9-2.4,29.6-7.3
		c36.8-21.2,45-87.3,26.1-170.3C689.1,379.3,742.1,338.9,742.1,296.5z M551.4,39.7v0.1c6,0,10.9,1.2,14.9,3.4
		c17.8,10.2,25.5,49.1,19.5,99.1c-1.4,12.3-3.8,25.3-6.7,38.5c-25.7-6.3-53.7-11.1-83.1-14.3c-17.7-24.2-36-46.2-54.5-65.5
		C484.2,61.5,524.2,39.7,551.4,39.7z M305,363.5c6.2,10.5,12.4,20.7,18.9,30.6c-18.6-2.7-36.5-6.2-53.7-10.3
		c4.8-16.9,10.9-34.3,17.7-51.7C293.2,342.6,298.9,353.1,305,363.5z M269.8,209.2c17.1-4.1,35.2-7.6,53.9-10.3
		c-6.4,10.1-12.8,20.4-18.9,31c-6,10.5-11.7,20.9-17,31.4C280.8,243.8,274.8,226.2,269.8,209.2z M303.2,296.9
		c8.1-17.5,17.3-35.1,27.1-52.2c10.2-17.7,20.7-34.4,31.5-50c19.5-1.7,39.3-2.6,59.2-2.6c19.8,0,39.5,0.9,58.9,2.5
		c10.9,15.6,21.5,32.2,31.7,49.7c9.9,17.1,19,34.6,27.2,52.1c-8.2,17.5-17.3,35.1-27.1,52.2c-10.2,17.7-20.7,34.4-31.5,50
		c-19.5,1.7-39.3,2.6-59.2,2.6c-19.8,0-39.5-0.9-58.9-2.5c-10.9-15.6-21.5-32.2-31.7-49.7C320.5,331.9,311.4,314.5,303.2,296.9z
		 M537,363.1c6-10.5,11.7-21.1,17-31.5v0c7.1,17.5,13.1,35.1,18.1,52.1c-17.1,4.2-35.2,7.7-53.9,10.5
		C524.6,384.1,531,373.8,537,363.1z M536.9,229.5c-6-10.5-12.4-20.7-18.9-30.6c18.6,2.7,36.5,6.2,53.7,10.3
		c-4.8,16.9-10.9,34.3-17.7,51.7C548.6,250.4,543,240,536.9,229.5z M457,163.6c-11.8-0.5-23.8-0.9-36-0.9c-12.3,0-24.5,0.3-36.4,0.9
		c11.8-15.3,24-29.3,36-41.9C432.8,134.3,445,148.3,457,163.6z M274.9,43.7c3.9-2.4,9-3.4,15.1-3.4v-0.1c27.1,0,67.3,21.6,110,61
		c-18.3,19.2-36.7,41.1-54.1,65.3c-29.6,3.1-57.6,8-83.3,14.4c-3-13.1-5.2-25.8-6.8-38C249.6,92.9,257.2,54.1,274.9,43.7z
		 M241.9,376.1c-13-4.1-25.3-8.5-36.7-13.4v0c-46.3-19.8-76.3-45.7-76.3-66.2s30-46.6,76.3-66.2c11.3-4.8,23.6-9.2,36.3-13.2
		c7.5,25.7,17.3,52.4,29.5,79.7C258.9,324,249.2,350.6,241.9,376.1z M290.5,553.4c-5.9-0.1-10.9-1.3-14.8-3.5l0,0
		c-17.8-10.2-25.5-49.1-19.5-99.1c1.4-12.3,3.8-25.3,6.7-38.5c25.7,6.3,53.7,11.1,83.1,14.3c17.7,24.2,36,46.2,54.5,65.5
		C357.8,531.6,317.7,553.4,290.5,553.4z M421.3,471.3c-12.2-12.6-24.3-26.6-36.4-41.9c11.8,0.5,23.8,0.9,36,0.9
		c12.3,0,24.5-0.3,36.4-0.9C445.5,444.7,433.3,458.7,421.3,471.3z M567.1,549.3c-3.9,2.4-9,3.4-15.1,3.4c-27.1,0-67.3-21.6-110-61
		c18.3-19.2,36.7-41.1,54.1-65.3c29.6-3.1,57.6-8,83.3-14.4c3,13.2,5.4,25.9,6.8,38.1C592.4,500.1,584.8,539,567.1,549.3z
		 M636.6,362.8L636.6,362.8c-11.3,4.8-23.6,9.2-36.3,13.2c-7.5-25.7-17.3-52.4-29.5-79.7c12-27.2,21.7-53.8,29.1-79.3
		c13,4.1,25.3,8.5,36.8,13.4c46.3,19.8,76.3,45.7,76.3,66.2C712.9,317.1,683,343.1,636.6,362.8z"/>
	<path class="st0" d="M551.3,10.6"/>
</g>
<g>
	<path class="st0" d="M333.5,299.5v8.8H330v-27.3h7.8c2.2,0.3,4.1,1.2,5.6,2.7c1.8,1.8,2.7,4,2.7,6.6c0,2.6-0.9,4.8-2.7,6.6
		s-4,2.7-6.6,2.7H333.5z M333.5,284.5v11.5h3.2c1.6,0,2.9-0.6,4-1.7c1.1-1.1,1.7-2.5,1.7-4.1c0-1.6-0.6-2.9-1.7-4.1
		c-1.1-1.1-2.5-1.7-4-1.7H333.5z"/>
	<path class="st0" d="M357.4,280.9l9.9,27.3h-3.8l-3.5-9.7h-7.2l-3.5,9.7h-3.8l9.9-27.3H357.4z M358.8,295l-2.3-6.4l-2.3,6.4H358.8z
		"/>
	<path class="st0" d="M374.9,280.9l8.9,15.3l8.8-15.3h3.2v27.3h-3.5v-19.8l-8.5,14.8l-8.6-14.8v19.8h-3.5v-27.3H374.9z"/>
	<path class="st0" d="M405.6,280.9v27.3h-3.5v-27.3H405.6z"/>
	<path class="st0" d="M413.7,280.9c4.4,0,7.9,1.3,10.4,3.8c2.7,2.7,4.1,6,4.1,9.9c0,3.9-1.4,7.2-4.1,9.9c-2.5,2.5-5.9,3.8-10.4,3.8
		h-2.6v-27.3H413.7z M414.7,284.5v20.1c2.8,0,5.1-0.9,6.9-2.7c2-2,3-4.5,3-7.4c0-2.9-1-5.3-3-7.4
		C419.8,285.4,417.5,284.5,414.7,284.5z"/>
	<path class="st0" d="M456,284.6c2.7,2.7,4.1,6,4.1,9.9s-1.4,7.2-4.1,9.9s-6,4.1-9.9,4.1s-7.2-1.4-9.9-4.1s-4.1-6-4.1-9.9
		s1.4-7.2,4.1-9.9s6-4.1,9.9-4.1S453.2,281.9,456,284.6z M446.1,284.1c-2.9,0-5.3,1-7.4,3.1c-2,2-3.1,4.5-3.1,7.4
		c0,2.9,1,5.3,3.1,7.4c2,2,4.5,3.1,7.4,3.1c2.9,0,5.3-1,7.4-3.1c2-2,3.1-4.5,3.1-7.4c0-2.9-1-5.3-3.1-7.4
		C451.4,285.1,448.9,284.1,446.1,284.1z"/>
	<path class="st0" d="M471.5,299.5h-3.2v8.8h-3.5v-27.3h7.8c2.2,0.3,4.1,1.2,5.6,2.7c1.8,1.8,2.7,4,2.7,6.6c0,2.6-0.9,4.8-2.7,6.6
		c-1.3,1.3-2.2,2-2.9,2.1l6.1,9.3H477L471.5,299.5z M468.3,284.5v11.5h3.2c1.6,0,2.9-0.6,4-1.7c1.1-1.1,1.7-2.5,1.7-4.1
		c0-1.6-0.6-2.9-1.7-4.1c-1.1-1.1-2.5-1.7-4-1.7H468.3z"/>
	<path class="st0" d="M508.3,284.6c2.7,2.7,4.1,6,4.1,9.9s-1.4,7.2-4.1,9.9s-6,4.1-9.9,4.1s-7.2-1.4-9.9-4.1s-4.1-6-4.1-9.9
		s1.4-7.2,4.1-9.9s6-4.1,9.9-4.1S505.5,281.9,508.3,284.6z M498.4,284.1c-2.9,0-5.3,1-7.4,3.1c-2,2-3.1,4.5-3.1,7.4
		c0,2.9,1,5.3,3.1,7.4c2,2,4.5,3.1,7.4,3.1c2.9,0,5.3-1,7.4-3.1c2-2,3.1-4.5,3.1-7.4c0-2.9-1-5.3-3.1-7.4
		C503.7,285.1,501.2,284.1,498.4,284.1z"/>
</g>
</svg>
